<svg xmlns="http://www.w3.org/2000/svg" width="455.672" height="533.333" viewBox="108.889 53.333 455.672 533.333">
  <path
    d="M236.667 458.889h111.111M236.667 347.778h111.111M236.667 236.667h27.778M305.889 570zm41.889-500H214.444c-31.114 0-46.671 0-58.555 6.055a55.55 55.55 0 0 0-24.279 24.279c-6.055 11.884-6.055 27.441-6.055 58.555v322.222c0 31.114 0 46.672 6.055 58.556a55.55 55.55 0 0 0 24.279 24.278C167.773 570 183.331 570 214.444 570h133.333m0-500l166.667 166.667M347.778 70v122.222c0 15.557 0 23.336 3.028 29.278 2.664 5.227 6.911 9.476 12.139 12.139 5.942 3.028 13.719 3.028 29.278 3.028h122.222m0 0v69.444"
    stroke-linecap="round" stroke="#000" stroke-linejoin="round" fill="none" stroke-width="33.333" />
  <path
    d="M443.945 586.185q-11.551 0-11.551-6.353h0v-187.71q0-4.621 2.021-6.642 2.021-2.021 6.642-2.021h0 58.623q25.413 0 44.906 12.129 19.493 12.129 19.493 44.473h0q0 23.969-11.263 37.253-11.263 13.284-25.124 17.76-13.862 4.476-25.124 4.476h0-44.762v80.282q0 6.353-11.551 6.353h0-2.31zm13.862-108.583h45.05q12.418 0 23.68-8.375 11.263-8.375 11.263-29.167h0q0-19.349-11.551-27.001-11.551-7.653-27.435-7.653h0-41.007v72.196z" />
</svg>