<svg xmlns="http://www.w3.org/2000/svg" width="435.867" height="160.8" viewBox="28.531 79.785 435.867 160.8">
  <path
    d="M33.031 155.343q-4 0-4-2.2h0v-65q0-1.6.7-2.3.7-.7 2.3-.7h0 20.3q8.8 0 15.55 4.2 6.75 4.2 6.75 15.4h0q0 8.3-3.9 12.9-3.9 4.6-8.7 6.15-4.8 1.55-8.7 1.55h0-15.5v27.8q0 2.2-4 2.2h0-.8zm4.8-37.6h15.6q4.3 0 8.2-2.9 3.9-2.9 3.9-10.1h0q0-6.7-4-9.35-4-2.65-9.5-2.65h0-14.2v25zm52.7 37.6q-4 0-4-2.2h0v-35.1q0-6.6-.6-9.45-.6-2.85-.6-3.15h0q0-1.2 1.9-1.75 1.9-.55 3.5-.55h0q1.4 0 2.05 1.45.65 1.45 1 3.05.35 1.6.45 2.1h0q5.3-7.5 11.6-7.5h0q2.9 0 4.35.95 1.45.95 1.45 2.95h0q0 1.7-.6 3.55-.6 1.85-1.4 1.85h0q-.5 0-1.95-.55-1.45-.55-3.55-.55h0q-2.6 0-5 1.75-2.4 1.75-4.2 4.35h0v36.6q0 2.2-4 2.2h0-.4zm50.3.4q-11.3 0-17.25-6.8-5.95-6.8-5.95-19.7h0q0-13 6-20 6-7 17.2-7h0q11 0 16.85 6.95 5.85 6.95 5.85 20.05h0q0 13-5.75 19.75-5.75 6.75-16.95 6.75h0zm-.3-7.2q7.3 0 10.8-4.75 3.5-4.75 3.5-14.75h0q0-10-3.5-14.8-3.5-4.8-10.8-4.8h0q-7.3 0-10.7 4.75-3.4 4.75-3.4 14.85h0q0 10 3.4 14.75 3.4 4.75 10.7 4.75h0zm52.1 7.2q-5 0-8.95-3.05-3.95-3.05-3.95-10.75h0v-31.9h-5q-1 0-1.5-.7-.5-.7-.5-2.3h0v-1.2q0-1.6.5-2.3.5-.7 1.5-.7h0 5l1.2-10.5q.3-2.2 3.2-2.2h0 1q3 0 3 2.2h0v10.5h8.4q1.1 0 1.55.7.45.7.45 2.3h0v1.2q0 1.6-.45 2.3-.45.7-1.55.7h0-8.4v31.1q0 4.2 1.45 5.8 1.45 1.6 3.95 1.6h0q1.9 0 2.85-.25.95-.25 1.45-.25h0q.9 0 1.5 1.85.6 1.85.6 2.85h0q0 3-7.3 3h0zm39.3 0q-11.3 0-17.25-6.8-5.95-6.8-5.95-19.7h0q0-13 6-20 6-7 17.2-7h0q11 0 16.85 6.95 5.85 6.95 5.85 20.05h0q0 13-5.75 19.75-5.75 6.75-16.95 6.75h0zm-.3-7.2q7.3 0 10.8-4.75 3.5-4.75 3.5-14.75h0q0-10-3.5-14.8-3.5-4.8-10.8-4.8h0q-7.3 0-10.7 4.75-3.4 4.75-3.4 14.85h0q0 10 3.4 14.75 3.4 4.75 10.7 4.75h0zm58.3 7.2q-12.4 0-18.5-6.4-6.1-6.4-6.1-20.6h0q0-14.3 6.8-20.4 6.8-6.1 16.9-6.1h0q5.8 0 10.4 1.4 4.6 1.4 4.6 3.2h0q0 1.3-1.15 3.35-1.15 2.05-2.05 2.05h0q-.2 0-.45-.15-.25-.15-.65-.25h0q-5.4-2.4-10.9-2.4h0q-14.5 0-14.5 19.1h0q0 10.6 3.55 15.3 3.55 4.7 11.95 4.7h0q6.1 0 11.3-2.6h0l1.1-.4q1 0 2.2 1.95 1.2 1.95 1.2 3.15h0q0 1.2-2.15 2.35-2.15 1.15-5.75 1.95-3.6.8-7.8.8h0zm47.4 0q-11.3 0-17.25-6.8-5.95-6.8-5.95-19.7h0q0-13 6-20 6-7 17.2-7h0q11 0 16.85 6.95 5.85 6.95 5.85 20.05h0q0 13-5.75 19.75-5.75 6.75-16.95 6.75h0zm-.3-7.2q7.3 0 10.8-4.75 3.5-4.75 3.5-14.75h0q0-10-3.5-14.8-3.5-4.8-10.8-4.8h0q-7.3 0-10.7 4.75-3.4 4.75-3.4 14.85h0q0 10 3.4 14.75 3.4 4.75 10.7 4.75h0zm-67.201 91.142q-4 0-4-2.2h0v-65q0-1.6.7-2.3.7-.7 2.3-.7h0 20.3q8.8 0 15.55 4.2 6.75 4.2 6.75 15.4h0q0 8.3-3.9 12.9-3.9 4.6-8.7 6.15-4.8 1.55-8.7 1.55h0-15.5v27.8q0 2.2-4 2.2h0-.8zm4.8-37.6h15.6q4.3 0 8.2-2.9 3.9-2.9 3.9-10.1h0q0-6.7-4-9.35-4-2.65-9.5-2.65h0-14.2v25zm59.7 38q-7.7 0-12.4-3.8-4.7-3.8-4.7-11.2h0q0-7.9 4.75-11.85 4.75-3.95 11.65-5.1 6.9-1.15 16.8-1.25h0v-4.7q0-3.7-2.6-6.05-2.6-2.35-8.4-2.35h0q-4.4 0-7.7 1.05-3.3 1.05-5.5 2.1-2.2 1.05-2.4 1.05h0q-1 0-2.25-2-1.25-2-1.25-3h0q0-1.3 2.65-2.8 2.65-1.5 7.05-2.55 4.4-1.05 9.1-1.05h0q9.3 0 14.5 4.15 5.2 4.15 5.2 11.55h0v22.4q0 6.6.6 9.45.6 2.85.6 3.15h0q0 1.2-1.9 1.75-1.9.55-3.5.55h0q-1.4 0-2.05-1.55-.65-1.55-1-3.25-.35-1.7-.45-2.2h0q-6.8 7.5-16.8 7.5h0zm.4-7.3q4.9 0 8.45-1.8 3.55-1.8 7.25-5.1h0v-11.8q-7.5.1-12.25.6-4.75.5-8.35 2.8-3.6 2.3-3.6 7.1h0q0 4 2.15 6.1 2.15 2.1 6.35 2.1h0zm48.962 7.3a14.26 14.26 0 0 1-8.95-3.05c-2.633-2.033-3.95-5.617-3.95-10.75h0v-143.8c0-1.467 1.333-2.2 4-2.2h0 .4c2.667 0 4 .733 4 2.2h0v143c0 2.8.483 4.733 1.45 5.8s2.283 1.6 3.95 1.6h0c1.267 0 2.217-.083 2.85-.25s1.117-.25 1.45-.25h0c.6 0 1.1.617 1.5 1.85s.6 2.183.6 2.85h0c0 2-2.433 3-7.3 3z" />
  <g stroke-linecap="round" stroke="#000" stroke-linejoin="round" fill="none">
    <path
      d="M400.078 210.673h24.272m-24.272-24.272h24.272m-24.272-24.272h6.068m50.475-1.593zm-32.272-34.815h-32.126m32.126 0l36.407 36.407m-36.407-36.407v26.699c0 3.398 0 5.098.661 6.396a6.07 6.07 0 0 0 2.652 2.652c1.298.661 2.997.661 6.396.661h26.699m0 0v.17"
      stroke-width="7.281" />
    <path
      d="M460.727 163.381v52.959c0 6.852 0 10.278-1.333 12.895-1.173 2.302-3.044 4.174-5.347 5.346-2.617 1.334-6.043 1.334-12.895 1.334H404.79"
      stroke-width="7.341" />
  </g>
</svg>