<?xml version="1.0" encoding="utf-8"?>
<svg viewBox="164.9288 167.831 167.0582 164.337" xmlns="http://www.w3.org/2000/svg">
  <style>
    path {
      fill: #000;
    }

    @media (prefers-color-scheme: dark) {
      path {
        fill: #fff;
      }
    }
  </style>
  <path
    d="M 216.782 174.473 C 207.194 174.473 203.092 174.323 200.129 175.84 C 197.323 177.035 195.459 178.687 194.163 181.146 C 192.686 183.343 192.343 182.905 192.288 188.962 C 211.586 179.198 234.822 193.173 234.822 215.197 C 234.822 225.685 229.227 235.376 220.144 240.62 C 211.084 245.851 200.976 245.633 192.731 241.649 L 192.731 284.565 C 196.134 282.359 199.444 279.709 202.661 277.143 C 210.249 271.093 217.471 265.406 226.673 266.252 C 231.768 266.478 237.883 267.216 246.814 276.565 L 249.278 279.146 L 251.75 276.57 C 260.689 267.254 266.853 266.476 271.906 266.252 C 281.108 265.405 288.319 271.093 295.906 277.143 C 299.126 279.71 302.438 282.363 305.843 284.569 L 305.843 220.371 L 271.527 220.371 C 266.727 220.371 263.645 220.221 261.133 219.238 C 259.097 218.228 257.037 216.371 255.886 214.513 C 254.737 212.056 254.52 209.095 254.52 204.811 L 254.52 174.473 Z M 188.389 177.863 C 190.36 174.57 193.729 171.54 197.372 169.797 C 201.714 167.98 207.194 167.831 216.782 167.831 L 257.828 167.831 C 257.928 167.831 258.028 167.834 258.129 167.843 C 258.442 167.87 258.743 167.941 259.026 168.049 C 259.309 168.156 259.58 168.305 259.832 168.494 C 259.912 168.554 259.991 168.618 260.065 168.686 L 311.365 214.564 C 311.386 214.583 311.406 214.601 311.426 214.62 C 311.763 214.932 312.019 215.299 312.195 215.694 C 312.372 216.09 312.474 216.526 312.483 216.984 C 312.484 217.012 312.484 217.039 312.484 217.066 L 312.484 288.116 C 315.004 289.132 317.571 289.747 320.186 289.767 C 324.886 289.462 328.95 288.165 331.987 286.595 C 329.825 292.553 326.421 299.379 320.866 305.295 C 318.368 307.955 315.571 310.364 312.325 312.338 C 312.09 316.457 311.521 319.508 310.182 322.141 C 308.206 325.432 304.832 328.461 301.198 330.203 C 296.85 332.019 291.372 332.168 281.791 332.168 L 216.782 332.168 C 207.194 332.168 201.714 332.019 197.372 330.203 C 193.729 328.459 190.36 325.429 188.389 322.137 C 187.051 319.506 186.483 316.457 186.248 312.341 C 182.999 310.366 180.201 307.956 177.702 305.295 C 172.147 299.379 168.749 292.566 166.587 286.615 C 169.607 288.189 173.66 289.462 178.381 289.767 C 180.998 289.747 183.567 289.131 186.089 288.114 L 186.089 237.264 C 182.982 234.555 180.422 231.183 178.673 227.303 C 178.326 228.997 177.982 230.577 177.714 232.162 C 176.857 237.232 176.685 242.366 179.628 252.057 C 181.094 257.009 182.075 264.069 180.715 269.81 C 180.025 272.721 178.567 275.684 176.364 277.698 C 175.265 278.703 173.786 279.629 172.236 280.217 C 170.713 280.793 167.469 281.108 167.469 281.108 C 166.783 281.305 166.044 281.119 165.533 280.621 C 165.021 280.124 164.814 279.391 164.991 278.7 C 165.168 278.008 165.701 277.464 166.388 277.273 C 166.388 277.273 168.224 277.134 168.941 276.998 C 169.649 276.864 170.217 276.704 170.819 276.476 C 172.002 276.028 172.831 275.508 173.665 274.746 C 175.328 273.225 176.235 271.367 176.822 268.888 C 178.016 263.85 177.196 257.854 175.795 253.201 C 172.77 242.889 172.866 236.848 173.77 231.496 C 174.533 226.976 175.806 222.953 176.157 216.909 C 176.126 216.344 176.11 215.773 176.11 215.197 C 176.11 206.658 179.819 198.648 186.099 193.135 C 186.159 186.115 186.534 181.512 188.389 177.863 Z M 194.161 318.851 C 195.458 321.31 197.321 322.963 200.127 324.159 C 203.09 325.676 207.194 325.527 216.782 325.527 L 281.791 325.527 C 291.372 325.527 295.472 325.676 298.445 324.159 C 301.243 322.963 303.106 321.312 304.414 318.85 C 305.022 317.945 305.376 316.903 305.58 315.517 C 302 316.763 297.956 317.537 293.329 317.694 C 272.719 319.053 259.311 309.892 252.152 299.444 L 249.279 295.251 L 246.413 299.449 C 239.256 309.93 225.847 319.088 205.24 317.694 C 200.615 317.537 196.573 316.763 192.994 315.519 C 193.198 316.904 193.553 317.946 194.161 318.851 Z M 261.162 204.811 C 261.162 209.095 260.945 210.415 261.659 211.231 C 262.133 212.249 262.688 212.732 263.885 213.194 C 265.016 213.877 266.727 213.73 271.527 213.73 L 300.469 213.73 L 261.162 178.577 Z M 166.388 277.273 C 166.388 277.273 166.465 277.262 166.388 277.273 Z M 193.724 235.536 C 209.38 244.575 228.951 233.276 228.951 215.197 C 228.951 206.807 224.475 199.054 217.209 194.858 C 201.552 185.819 181.981 197.118 181.981 215.197 C 181.981 223.587 186.457 231.34 193.724 235.536 Z"
    transform="matrix(0.9999999999999999, 0, 0, 0.9999999999999999, 0, -2.842170943040401e-14)" />
</svg>